<svg width="580" height="400" xmlns="http://www.w3.org/2000/svg">
 <!-- Created with Method Draw - http://github.com/duopixel/Method-Draw/ -->

 <g>
  <title>Layer 1</title>
  <path id="svg_10" d="m290.613535,102.534468c-5.51679,0 -9.96612,4.32793 -9.96612,9.66057l0,89.08016l-60.31549,25.54256c-5.0479,2.14465 -7.3424,7.84439 -5.12771,12.73264c1.63608,3.62272 5.28733,5.78668 9.12813,5.78668c1.3368,0 2.70352,-0.26083 4.00041,-0.82114l66.10162,-27.99635c0.04988,-0.01932 0.08979,-0.03864 0.12969,-0.05796l0.0399,-0.01933c0.14965,-0.05796 0.22945,-0.19321 0.36912,-0.24151c1.03751,-0.50235 2.0052,-1.09164 2.78333,-1.88381c0.33919,-0.32846 0.52873,-0.75353 0.78811,-1.13029c0.47886,-0.61828 1.00759,-1.22689 1.2969,-1.97076c0.23942,-0.57963 0.25937,-1.20757 0.37909,-1.82584c0.12969,-0.61828 0.37909,-1.16893 0.37909,-1.79687l0,-95.40784c0,-5.32298 -4.46929,-9.65091 -9.98607,-9.65091zm155.88649,16.4906c0,-37.01932 -30.97579,-67.02507 -69.21416,-67.02507c-19.33368,0 -36.7719,7.68982 -49.28192,20.06501c-11.94139,-3.08172 -24.43146,-4.87859 -37.38044,-4.87859c-13.30811,0 -26.13737,1.88382 -38.37804,5.12977c-12.55991,-12.51045 -30.08791,-20.31619 -49.53132,-20.31619c-38.22841,0 -69.21416,30.00575 -69.21416,67.02507c0,17.82376 7.24264,33.97624 18.96456,45.98433c-4.41941,13.4282 -6.83363,27.72585 -6.83363,42.58382c0,77.54543 64.91446,140.40679 144.99259,140.40679c80.07813,0 144.99259,-62.86136 144.99259,-140.40679c0,-15.21541 -2.58381,-29.8222 -7.20274,-43.54987c11.21313,-11.89217 18.08667,-27.65823 18.08667,-45.01828zm-155.87652,199.98356c-63.45795,0 -115.0643,-49.98382 -115.0643,-111.41541c0,-61.44126 51.60635,-111.42507 115.0643,-111.42507c63.45795,0 115.05433,49.97415 115.05433,111.42507c0,61.45091 -51.61633,111.41541 -115.05433,111.41541z" stroke-width="1.5" stroke="#000" fill="#FFFF91"/>
 </g>
</svg>